<mxfile host="Electron" agent="Mozilla/5.0 (Windows NT 10.0; Win64; x64) AppleWebKit/537.36 (KHTML, like Gecko) draw.io/27.0.5 Chrome/134.0.6998.205 Electron/35.3.0 Safari/537.36" version="27.0.5">
  <diagram name="第1頁" id="DOcnyW9wrsUAfP2_NkjQ">
    <mxGraphModel dx="885" dy="610" grid="1" gridSize="10" guides="1" tooltips="1" connect="1" arrows="1" fold="1" page="1" pageScale="1" pageWidth="827" pageHeight="1169" background="light-dark(#FFFFFF,#FFFFFF)" math="0" shadow="1" adaptiveColors="auto">
      <root>
        <mxCell id="0" />
        <mxCell id="1" parent="0" />
        <mxCell id="5oLGGofGCO8twZzniWwv-32" value="" style="edgeStyle=orthogonalEdgeStyle;rounded=0;orthogonalLoop=1;jettySize=auto;html=1;entryX=0.5;entryY=0;entryDx=0;entryDy=0;fontSize=18;strokeColor=light-dark(#000000,#000000);" edge="1" parent="1" source="5oLGGofGCO8twZzniWwv-2" target="5oLGGofGCO8twZzniWwv-5">
          <mxGeometry relative="1" as="geometry" />
        </mxCell>
        <mxCell id="5oLGGofGCO8twZzniWwv-33" value="" style="edgeStyle=orthogonalEdgeStyle;rounded=0;orthogonalLoop=1;jettySize=auto;html=1;entryX=0.5;entryY=0;entryDx=0;entryDy=0;fontSize=18;strokeColor=light-dark(#000000,#000000);" edge="1" parent="1" source="5oLGGofGCO8twZzniWwv-5" target="5oLGGofGCO8twZzniWwv-68">
          <mxGeometry relative="1" as="geometry">
            <mxPoint x="413" y="280" as="targetPoint" />
          </mxGeometry>
        </mxCell>
        <mxCell id="5oLGGofGCO8twZzniWwv-5" value="初始化序列埠接收器" style="shape=hexagon;perimeter=hexagonPerimeter2;whiteSpace=wrap;html=1;fixedSize=1;textShadow=1;verticalAlign=middle;align=center;fontSize=18;" vertex="1" parent="1">
          <mxGeometry x="306" y="200" width="214" height="40" as="geometry" />
        </mxCell>
        <mxCell id="5oLGGofGCO8twZzniWwv-41" value="" style="edgeStyle=orthogonalEdgeStyle;rounded=0;orthogonalLoop=1;jettySize=auto;html=1;entryX=0.5;entryY=0;entryDx=0;entryDy=0;fontSize=18;strokeColor=light-dark(#000000,#000000);" edge="1" parent="1" source="5oLGGofGCO8twZzniWwv-29" target="5oLGGofGCO8twZzniWwv-37">
          <mxGeometry relative="1" as="geometry" />
        </mxCell>
        <mxCell id="5oLGGofGCO8twZzniWwv-29" value="建立並顯示Qt主視窗" style="shape=hexagon;perimeter=hexagonPerimeter2;whiteSpace=wrap;html=1;fixedSize=1;textShadow=1;verticalAlign=middle;align=center;fontSize=18;" vertex="1" parent="1">
          <mxGeometry x="306" y="360" width="214" height="40" as="geometry" />
        </mxCell>
        <mxCell id="5oLGGofGCO8twZzniWwv-54" value="" style="edgeStyle=orthogonalEdgeStyle;rounded=0;orthogonalLoop=1;jettySize=auto;html=1;exitX=0;exitY=0.5;exitDx=0;exitDy=0;entryX=0.5;entryY=0;entryDx=0;entryDy=0;fontSize=18;strokeColor=light-dark(#000000,#000000);" edge="1" parent="1" source="5oLGGofGCO8twZzniWwv-37" target="5oLGGofGCO8twZzniWwv-43">
          <mxGeometry relative="1" as="geometry" />
        </mxCell>
        <mxCell id="5oLGGofGCO8twZzniWwv-57" value="" style="edgeStyle=orthogonalEdgeStyle;rounded=0;orthogonalLoop=1;jettySize=auto;html=1;exitX=1;exitY=0.5;exitDx=0;exitDy=0;entryX=0.5;entryY=0;entryDx=0;entryDy=0;fontSize=18;strokeColor=light-dark(#000000,#000000);" edge="1" parent="1" source="5oLGGofGCO8twZzniWwv-37" target="5oLGGofGCO8twZzniWwv-52">
          <mxGeometry relative="1" as="geometry" />
        </mxCell>
        <mxCell id="5oLGGofGCO8twZzniWwv-60" value="" style="edgeStyle=orthogonalEdgeStyle;rounded=0;orthogonalLoop=1;jettySize=auto;html=1;entryX=0;entryY=0.5;entryDx=0;entryDy=0;fontSize=18;strokeColor=light-dark(#000000,#000000);" edge="1" parent="1" source="5oLGGofGCO8twZzniWwv-37" target="5oLGGofGCO8twZzniWwv-59">
          <mxGeometry relative="1" as="geometry" />
        </mxCell>
        <mxCell id="5oLGGofGCO8twZzniWwv-37" value="建立應用程式物件" style="shape=hexagon;perimeter=hexagonPerimeter2;whiteSpace=wrap;html=1;fixedSize=1;textShadow=1;verticalAlign=middle;align=center;fontSize=18;" vertex="1" parent="1">
          <mxGeometry x="316" y="440" width="194" height="40" as="geometry" />
        </mxCell>
        <mxCell id="5oLGGofGCO8twZzniWwv-43" value="進入Qt應用程式迴圈" style="rounded=0;whiteSpace=wrap;html=1;fontSize=18;" vertex="1" parent="1">
          <mxGeometry x="146" y="520" width="194" height="40" as="geometry" />
        </mxCell>
        <mxCell id="5oLGGofGCO8twZzniWwv-49" value="通過WebSocket實現傳輸數據" style="text;html=1;align=center;verticalAlign=middle;resizable=0;points=[];autosize=1;strokeColor=none;fillColor=none;fontSize=18;" vertex="1" parent="1">
          <mxGeometry x="560" y="280" width="260" height="40" as="geometry" />
        </mxCell>
        <mxCell id="5oLGGofGCO8twZzniWwv-52" value="開始序列埠接收器執行緒" style="rounded=0;whiteSpace=wrap;html=1;fontSize=18;" vertex="1" parent="1">
          <mxGeometry x="450" y="520" width="230" height="40" as="geometry" />
        </mxCell>
        <mxCell id="5oLGGofGCO8twZzniWwv-59" value="啟動Flask後端" style="rounded=0;whiteSpace=wrap;html=1;fontSize=18;" vertex="1" parent="1">
          <mxGeometry x="480" y="600" width="170" height="40" as="geometry" />
        </mxCell>
        <mxCell id="5oLGGofGCO8twZzniWwv-70" value="" style="edgeStyle=orthogonalEdgeStyle;rounded=0;orthogonalLoop=1;jettySize=auto;html=1;entryX=0.5;entryY=0;entryDx=0;entryDy=0;fontSize=18;strokeColor=light-dark(#000000,#000000);" edge="1" parent="1" source="5oLGGofGCO8twZzniWwv-68" target="5oLGGofGCO8twZzniWwv-29">
          <mxGeometry relative="1" as="geometry" />
        </mxCell>
        <mxCell id="5oLGGofGCO8twZzniWwv-71" value="" style="group;fontSize=18;" vertex="1" connectable="0" parent="1">
          <mxGeometry x="306" y="270" width="514" height="60" as="geometry" />
        </mxCell>
        <mxCell id="5oLGGofGCO8twZzniWwv-64" value="" style="group;fontSize=18;textShadow=1;" vertex="1" connectable="0" parent="5oLGGofGCO8twZzniWwv-71">
          <mxGeometry x="204" width="310" height="60" as="geometry" />
        </mxCell>
        <mxCell id="5oLGGofGCO8twZzniWwv-47" value="" style="strokeWidth=2;html=1;shape=mxgraph.flowchart.annotation_2;align=left;labelPosition=right;pointerEvents=1;direction=east;fontSize=18;fontColor=light-dark(#000000,#000000);strokeColor=light-dark(#000000,#050505);" vertex="1" parent="5oLGGofGCO8twZzniWwv-64">
          <mxGeometry width="50" height="60" as="geometry" />
        </mxCell>
        <mxCell id="5oLGGofGCO8twZzniWwv-62" value="&lt;span style=&quot;background-color: light-dark(transparent, rgb(0, 0, 0));&quot;&gt;通過WebSocket實現傳輸數據&lt;/span&gt;" style="text;html=1;align=center;verticalAlign=middle;resizable=0;points=[];autosize=1;strokeColor=none;fillColor=none;fontSize=18;" vertex="1" parent="5oLGGofGCO8twZzniWwv-64">
          <mxGeometry x="50" y="10" width="260" height="40" as="geometry" />
        </mxCell>
        <mxCell id="5oLGGofGCO8twZzniWwv-68" value="初始化Flask後端" style="shape=hexagon;perimeter=hexagonPerimeter2;whiteSpace=wrap;html=1;fixedSize=1;textShadow=1;verticalAlign=middle;align=center;fontSize=18;" vertex="1" parent="5oLGGofGCO8twZzniWwv-71">
          <mxGeometry y="10" width="214" height="40" as="geometry" />
        </mxCell>
        <mxCell id="5oLGGofGCO8twZzniWwv-72" value="" style="group;fontSize=18;" vertex="1" connectable="0" parent="1">
          <mxGeometry x="318" y="110" width="409" height="60" as="geometry" />
        </mxCell>
        <mxCell id="5oLGGofGCO8twZzniWwv-2" value="初始化資料庫介面" style="shape=hexagon;perimeter=hexagonPerimeter2;whiteSpace=wrap;html=1;fixedSize=1;textShadow=1;verticalAlign=middle;align=center;fontSize=18;" vertex="1" parent="5oLGGofGCO8twZzniWwv-72">
          <mxGeometry y="10" width="190" height="40" as="geometry" />
        </mxCell>
        <mxCell id="5oLGGofGCO8twZzniWwv-63" value="" style="group;fontSize=18;" vertex="1" connectable="0" parent="5oLGGofGCO8twZzniWwv-72">
          <mxGeometry x="189" width="220" height="60" as="geometry" />
        </mxCell>
        <mxCell id="5oLGGofGCO8twZzniWwv-45" value="" style="strokeWidth=2;html=1;shape=mxgraph.flowchart.annotation_2;align=left;labelPosition=right;pointerEvents=1;fontSize=18;strokeColor=light-dark(#000000,#0D0D0D);" vertex="1" parent="5oLGGofGCO8twZzniWwv-63">
          <mxGeometry width="50" height="60" as="geometry" />
        </mxCell>
        <mxCell id="5oLGGofGCO8twZzniWwv-46" value="&lt;span style=&quot;background-color: light-dark(transparent, rgb(0, 0, 0));&quot;&gt;自定義資料庫接口&lt;/span&gt;" style="text;html=1;align=center;verticalAlign=middle;resizable=0;points=[];autosize=1;strokeColor=none;fillColor=none;fontSize=18;" vertex="1" parent="5oLGGofGCO8twZzniWwv-63">
          <mxGeometry x="50" y="10" width="170" height="40" as="geometry" />
        </mxCell>
      </root>
    </mxGraphModel>
  </diagram>
</mxfile>
